<?xml version="1.0" encoding="UTF-8" standalone="no"?>
<svg
   width="93.333"
   height="93.333"
   fill-rule="evenodd"
   stroke-linejoin="round"
   stroke-miterlimit="2"
   version="1.1"
   id="svg1"
   sodipodi:docname="icon_app_colors.svg"
   inkscape:export-filename="../568c15d2/icon_app.png"
   inkscape:export-xdpi="96"
   inkscape:export-ydpi="96"
   inkscape:version="1.4.2 (2aeb623e1d, 2025-05-12)"
   xmlns:inkscape="http://www.inkscape.org/namespaces/inkscape"
   xmlns:sodipodi="http://sodipodi.sourceforge.net/DTD/sodipodi-0.dtd"
   xmlns="http://www.w3.org/2000/svg"
   xmlns:svg="http://www.w3.org/2000/svg">
  <defs
     id="defs1" />
  <sodipodi:namedview
     id="namedview1"
     pagecolor="#ffffff"
     bordercolor="#000000"
     borderopacity="0.25"
     inkscape:showpageshadow="2"
     inkscape:pageopacity="0.0"
     inkscape:pagecheckerboard="0"
     inkscape:deskcolor="#d1d1d1"
     inkscape:zoom="3.9617079"
     inkscape:cx="43.163203"
     inkscape:cy="51.619152"
     inkscape:window-width="1440"
     inkscape:window-height="863"
     inkscape:window-x="0"
     inkscape:window-y="0"
     inkscape:window-maximized="1"
     inkscape:current-layer="svg1" />
  <rect
     style="fill:#d1e3ff;stroke-width:0;fill-opacity:1"
     id="rect1"
     width="93.333"
     height="93.333"
     x="0"
     y="0" />
  <path
     d="M43.174 32.614a4.88 4.88 0 0 1-1.386-3.407c0-2.693 2.186-4.879 4.879-4.879s4.879 2.186 4.879 4.879a4.88 4.88 0 0 1-1.386 3.407c-.24.246-.448.521-.62.819-1.139 1.974-.462 4.501 1.511 5.641s4.501.462 5.641-1.511a4.14 4.14 0 0 0 .399-.946 4.88 4.88 0 0 1 2.257-2.904c2.332-1.346 5.319-.546 6.665 1.786s.546 5.319-1.786 6.665a4.88 4.88 0 0 1-3.644.503c-.333-.085-.676-.128-1.019-.128-2.279 0-4.13 1.85-4.13 4.129s1.85 4.129 4.13 4.129c.344 0 .686-.043 1.019-.128a4.88 4.88 0 0 1 3.644.503c2.332 1.346 3.132 4.333 1.786 6.665s-4.333 3.132-6.665 1.786a4.88 4.88 0 0 1-2.257-2.904 4.14 4.14 0 0 0-.399-.946c-1.14-1.974-3.667-2.651-5.641-1.512s-2.651 3.668-1.511 5.641c.172.298.38.573.62.819a4.88 4.88 0 0 1 1.386 3.407c0 2.693-2.186 4.879-4.879 4.879s-4.879-2.186-4.879-4.879a4.88 4.88 0 0 1 1.386-3.407c.24-.246.448-.521.62-.819 1.139-1.974.462-4.501-1.511-5.641s-4.501-.462-5.641 1.512a4.14 4.14 0 0 0-.399.946 4.88 4.88 0 0 1-2.257 2.904c-2.332 1.346-5.319.546-6.665-1.786s-.546-5.319 1.786-6.665a4.88 4.88 0 0 1 3.644-.503 4.14 4.14 0 0 0 1.019.128c2.279 0 4.13-1.85 4.13-4.129s-1.85-4.129-4.13-4.129c-.344 0-.686.043-1.019.128a4.88 4.88 0 0 1-3.644-.503c-2.332-1.346-3.132-4.333-1.786-6.665s4.333-3.132 6.665-1.786a4.88 4.88 0 0 1 2.257 2.904 4.14 4.14 0 0 0 .399.946c1.14 1.974 3.668 2.651 5.641 1.511s2.651-3.667 1.511-5.641c-.172-.298-.38-.573-.62-.819z"
     id="path1"
     style="fill:#0f4c81;fill-opacity:1" />
</svg>
