<svg xmlns="http://www.w3.org/2000/svg" width="93.333" height="93.333" fill-rule="evenodd" stroke-linejoin="round" stroke-miterlimit="2" xmlns:v="https://vecta.io/nano"><path d="M43.174 32.614a4.88 4.88 0 0 1-1.386-3.407c0-2.693 2.186-4.879 4.879-4.879s4.879 2.186 4.879 4.879a4.88 4.88 0 0 1-1.386 3.407c-.24.246-.448.521-.62.819-1.139 1.974-.462 4.501 1.511 5.641s4.501.462 5.641-1.511a4.14 4.14 0 0 0 .399-.946 4.88 4.88 0 0 1 2.257-2.904c2.332-1.346 5.319-.546 6.665 1.786s.546 5.319-1.786 6.665a4.88 4.88 0 0 1-3.644.503c-.333-.085-.676-.128-1.019-.128-2.279 0-4.13 1.85-4.13 4.129s1.85 4.129 4.13 4.129c.344 0 .686-.043 1.019-.128a4.88 4.88 0 0 1 3.644.503c2.332 1.346 3.132 4.333 1.786 6.665s-4.333 3.132-6.665 1.786a4.88 4.88 0 0 1-2.257-2.904 4.14 4.14 0 0 0-.399-.946c-1.14-1.974-3.667-2.651-5.641-1.512s-2.651 3.668-1.511 5.641c.172.298.38.573.62.819a4.88 4.88 0 0 1 1.386 3.407c0 2.693-2.186 4.879-4.879 4.879s-4.879-2.186-4.879-4.879a4.88 4.88 0 0 1 1.386-3.407c.24-.246.448-.521.62-.819 1.139-1.974.462-4.501-1.511-5.641s-4.501-.462-5.641 1.512a4.14 4.14 0 0 0-.399.946 4.88 4.88 0 0 1-2.257 2.904c-2.332 1.346-5.319.546-6.665-1.786s-.546-5.319 1.786-6.665a4.88 4.88 0 0 1 3.644-.503 4.14 4.14 0 0 0 1.019.128c2.279 0 4.13-1.85 4.13-4.129s-1.85-4.129-4.13-4.129c-.344 0-.686.043-1.019.128a4.88 4.88 0 0 1-3.644-.503c-2.332-1.346-3.132-4.333-1.786-6.665s4.333-3.132 6.665-1.786a4.88 4.88 0 0 1 2.257 2.904 4.14 4.14 0 0 0 .399.946c1.14 1.974 3.668 2.651 5.641 1.511s2.651-3.667 1.511-5.641c-.172-.298-.38-.573-.62-.819z"/></svg>