<svg xmlns="http://www.w3.org/2000/svg" width="601.331" height="136.777" viewBox="0 0 159.102 36.189" xmlns:v="https://vecta.io/nano"><g fill="#002d62"><path d="M150.706 27.728c5.574 0 8.396-2.681 8.396-6.103 0-2.611-1.799-4.762-5.221-5.397l-3.775-.706c-.952-.176-1.623-.494-1.623-1.235 0-.776.988-1.305 2.399-1.305 2.046 0 3.492 1.129 3.775 2.328l4.127-1.976c-.811-2.505-3.175-4.762-7.796-4.762-4.163 0-7.62 2.258-7.62 5.927 0 3.598 2.575 5.045 5.256 5.539l3.739.706c.952.176 1.517.564 1.517 1.199 0 .741-.952 1.305-2.893 1.305-2.293 0-3.739-1.235-4.374-2.575l-4.233 2.011c.988 2.681 3.669 5.045 8.326 5.045zM133.49 3.14c0 1.834 1.376 3.14 3.21 3.14s3.21-1.305 3.21-3.14S138.535 0 136.701 0s-3.21 1.305-3.21 3.14zm.671 24.271h5.115V8.89h-5.115zm-15.24.317c2.399 0 4.692-.988 5.75-2.364v2.046h5.115V1.305h-5.115v9.631c-1.058-1.376-3.351-2.364-5.75-2.364-4.833 0-9.172 3.775-9.172 9.596 0 6.032 4.339 9.56 9.172 9.56zm-3.951-9.56c0-2.681 1.976-4.762 4.868-4.762 2.822 0 4.868 2.081 4.868 4.762s-2.046 4.762-4.868 4.762c-2.893 0-4.868-2.081-4.868-4.762z"/><use href="#B"/><path d="M65.854 1.654l-7.439 21.074h-4.187v4.516h7.383l4.131-11.699 6.906 20.645 7.031-12.746 2.164 3.801h7.098v-4.516h-4.473l-4.852-8.521-5.951 10.789z"/><use href="#B" x="-53.622"/><path d="M22.19 27.411h5.186V17.145l6.279-3.246V8.467l-6.279 3.492V8.89H22.19zm-22.19 0h5.292v-8.255h4.516c5.433 0 8.855-3.281 8.855-8.643 0-4.233-3.422-7.796-8.855-7.796H0zm5.292-13.017V7.479h4.516c2.081 0 3.563 1.446 3.563 3.457s-1.482 3.457-3.563 3.457z"/></g><defs ><path id="B" d="M98.53 27.728c5.256 0 7.973-3.069 8.678-4.657l-3.881-2.328c-.459.952-1.976 2.505-4.798 2.505-2.152 0-3.951-1.023-4.621-3.21h14.076v-1.87c0-4.833-3.281-9.596-9.454-9.596-5.821 0-9.842 4.233-9.842 9.596 0 5.292 3.563 9.56 9.842 9.56zm-4.516-11.712c.741-2.081 2.611-3.069 4.445-3.069 2.857 0 4.057 1.976 4.198 3.069z"/></defs></svg>