<svg xmlns="http://www.w3.org/2000/svg" width="793.701" height="559.37" viewBox="0 0 210 148" xmlns:v="https://vecta.io/nano"><path d="M0 0h210v148H0z" fill="#f5faff"/><rect width="170" height="40" x="20" y="20" ry="11.628" fill="#ebf0f8"/><rect width="130" height="30" x="55" y="25" ry="5" fill="#d1e3ff"/><g fill="#1a1c1e"><path d="M39.2 48q-2.16 0-3.68-1.52Q34 44.96 34 42.8v-.46q-1.72-.28-2.86-1.61Q30 39.4 30 37.6v-4.8h2.4V32H34v3.2h-1.6v-.8h-.8v3.2q0 1.32.94 2.26.94.94 2.26.94 1.32 0 2.26-.94.94-.94.94-2.26v-3.2h-.8v.8h-1.6V32h1.6v.8h2.4v4.8q0 1.8-1.14 3.13-1.14 1.33-2.86 1.61v.46q0 1.5 1.05 2.55 1.05 1.05 2.55 1.05 1.5 0 2.55-1.05 1.05-1.05 1.05-2.55v-1.34q-.7-.24-1.15-.86-.45-.62-.45-1.4 0-1 .7-1.7.7-.7 1.7-.7 1 0 1.7.7.7.7.7 1.7 0 .78-.45 1.4-.45.62-1.15.86v1.34q0 2.16-1.52 3.68Q41.36 48 39.2 48z"/><use href="#B"/></g><rect width="170" height="40" x="20" y="70" ry="11.628" fill="#ebf0f8"/><rect width="130" height="30" x="55" y="75" ry="5" fill="#d1e3ff"/><use href="#B" y="50" fill="#1a1c1e"/><rect width="170" height="40" x="20" y="120" ry="11.628" fill="#ebf0f8"/><rect width="130" height="30" x="55" y="125" ry="5" fill="#d1e3ff"/><use href="#B" y="100" fill="#1a1c1e"/><path d="M31.803 98q-1.133 0-1.611-1.011-.478-1.011.233-1.878l4.933-6v-5.333h-.889q-.378 0-.633-.256-.256-.256-.256-.633 0-.378.256-.633.256-.256.633-.256h7.111q.378 0 .633.256.256.256.256.633 0 .378-.256.633-.256.256-.633.256h-.889v5.333l4.933 6q.711.867.233 1.878Q45.381 98 44.247 98zm2.641 47.333h1.333v-1.778h1.778v-1.333h-1.778v-1.778h-1.333v1.778h-1.778v1.333h1.778zm4.444-.667h4.444v-1.333h-4.444zm0-2.222h4.444v-1.333h-4.444zm-6-4.933h4.444v-1.333h-4.444zM31.778 148q-.733 0-1.256-.522-.522-.522-.522-1.256v-12.444q0-.733.522-1.256.522-.522 1.256-.522h12.444q.733 0 1.256.522.522.522.522 1.256v12.444q0 .733-.522 1.256-.522.522-1.256.522zm8.089-8.933l1.244-1.244 1.244 1.244.933-.933-1.244-1.289 1.244-1.244-.933-.933-1.244 1.244-1.244-1.244-.933.933 1.244 1.244-1.244 1.289z"/><defs ><path id="B" d="M71.828 44.939h1.778v-9.878h-1.792l-1.651 1.482h-.889v1.947h1.115l1.439-1.312zm14.852 0h6.562v-1.693h-4.135l2.342-2.088c1.256-1.129 1.651-1.905 1.651-3.02 0-1.637-1.242-3.203-3.401-3.203-1.933 0-2.963 1.256-3.175 2.611l1.468.706c.085-.861.635-1.665 1.707-1.665 1.016 0 1.58.748 1.58 1.552 0 .635-.339 1.157-1.087 1.863l-3.514 3.246zm22.359-1.524c-1.199 0-1.778-.804-1.877-1.595l-1.468.691c.198 1.27 1.397 2.554 3.415 2.554 2.357 0 3.5-1.468 3.5-3.09a2.41 2.41 0 0 0-1.51-2.314c.48-.226 1.199-.861 1.199-1.976 0-1.453-1.171-2.752-3.246-2.752-1.919 0-2.963 1.157-3.231 2.526l1.482.691c.071-.804.593-1.552 1.679-1.552 1.044 0 1.51.635 1.51 1.199 0 .734-.564 1.228-1.383 1.228h-.889v1.552h.889c1.157 0 1.693.635 1.693 1.411 0 .734-.452 1.425-1.764 1.425zm20.242 1.524h1.764v-1.764h1.129v-1.637h-1.129v-2.215h-1.764v2.215h-2.596l2.808-4.967.014-1.51h-1.834v1.228l-2.893 5.249v1.637h4.501zm18.295-1.524c-1.129 0-1.679-.762-1.834-1.496l-1.468.691c.254 1.199 1.369 2.455 3.302 2.455 2.272 0 3.528-1.693 3.528-3.429 0-1.609-1.143-3.344-3.189-3.344-.72 0-1.312.254-1.75.663l.169-2.244h4.304v-1.651h-5.898l-.381 5.814h1.609c.212-.423.706-.974 1.566-.974 1.072 0 1.778.833 1.778 1.736 0 .917-.607 1.778-1.736 1.778zm19.65 1.651c2.117 0 3.5-1.538 3.5-3.26 0-1.566-1.143-3.246-3.288-3.246-.974 0-1.707.409-2.117.889 0-1.383.649-2.879 2.046-2.879 1.087 0 1.651.79 1.792 1.524l1.482-.734c-.268-1.185-1.256-2.427-3.231-2.427-2.667 0-3.852 2.455-3.852 5.221 0 2.794 1.129 4.911 3.669 4.911zm-1.693-3.302c0-.861.677-1.609 1.707-1.609 1.016 0 1.693.748 1.693 1.609 0 .96-.677 1.665-1.693 1.665-1.044 0-1.707-.706-1.707-1.665z"/></defs></svg>