<svg xmlns="http://www.w3.org/2000/svg" width="793.701" height="559.37" viewBox="0 0 793.7 559.37" xmlns:v="https://vecta.io/nano"><path fill="#f5faff" d="M0 0h793.7v559.37H0z"/><path d="M718.11 86.929c-96.372-.826-151.18-11.339-151.18-11.339v408.19h151.18" fill="#0567ff"/><path d="M718.11 143.62c-209.15 2.873-264.57-68.032-264.57-68.032v408.19h264.57" fill="#3886ff"/><path d="M718.11 238.11C415.75 221.432 340.16 75.59 340.16 75.59v408.19h377.95" fill="#6ba5ff"/><path d="M718.11 332.6C231.23 320.374 226.77 75.59 226.77 75.59v408.19h491.34" fill="#9ec4ff"/><path d="M718.111 445.98C75.591 431.148 78.31 75.59 78.31 75.59v408.19h639.8" fill="#d1e3ff"/><g fill="none" stroke="#1a1c1e" stroke-width="5.669" stroke-linejoin="round"><path d="M75.591 483.78V75.59z"/><path d="m75.591 483.78h642.52z"/></g><g fill="#1a1c1e"><path d="M375.81 540.647c6.2 0 11-3.4 13-8.44l-4.6-2.4c-1.28 3.48-4.44 5.76-8.4 5.76-5.16 0-9.04-3.88-9.04-9.28s3.84-9.28 9.04-9.28c3.8 0 6.84 2.12 8.2 5.36l4.6-2.48c-2.04-4.76-6.76-7.96-12.8-7.96-8.4 0-14.36 6.2-14.36 14.36 0 8.12 5.96 14.36 14.36 14.36zm-6.52-37.24l3.64 6.36h5.64l3.64-6.36h-4.04l-2.4 3-2.4-3zm29.64 37.28c2.72 0 4.88-1.04 5.88-2.6v2.2h5v-12.8c0-3.88-3-8.36-9.32-8.36-4.8 0-7.56 2.64-8.8 5.6l4 2.04c.44-1.28 1.72-3.16 4.68-3.16 2.88 0 4.44 1.96 4.44 3.44v.2l-5.72.36c-4.68.28-7.32 2.8-7.32 6.6 0 3.88 3.08 6.48 7.16 6.48zm-2.08-6.68c0-1.4 1.04-2.2 2.56-2.32l5.48-.36v.64c0 2.56-2.56 4.32-5.24 4.32-1.64 0-2.8-.88-2.8-2.28zm26.04 6.64c5.76 0 9.04-2.84 9.04-6.64 0-2.88-2-5.28-5.8-6l-4.24-.8c-1.24-.24-2.12-.76-2.12-1.8 0-1.16 1.28-1.96 3.28-1.96 2.56 0 4.16 1.44 4.52 2.88l4.04-1.96c-.84-2.56-3.32-5.24-8.48-5.24-4.68 0-8.28 2.56-8.28 6.44 0 3.76 2.6 5.48 5.72 6.08l4.12.76c1.4.28 2.12.92 2.12 1.84 0 1.16-1.28 2-3.72 2-2.84 0-4.6-1.68-5.24-3.24l-4.12 2c.96 2.8 3.88 5.64 9.16 5.64zM51.203 405.067v-21.721h-4.76v15.16l-18.48-14.92h-4.76v21.121h4.76v-14.6l18.48 14.96zm.4-32.041c0-2.72-1.04-4.88-2.6-5.88h2.2v-5h-12.8c-3.88 0-8.36 3-8.36 9.32 0 4.8 2.64 7.56 5.6 8.8l2.04-4c-1.28-.44-3.16-1.72-3.16-4.68 0-2.88 1.96-4.44 3.44-4.44h.2l.36 5.72c.28 4.68 2.8 7.32 6.6 7.32 3.88 0 6.48-3.08 6.48-7.16zm-6.68 2.08c-1.4 0-2.2-1.04-2.32-2.56l-.36-5.48h.64c2.56 0 4.32 2.56 4.32 5.24 0 1.64-.88 2.8-2.28 2.8zm15.44-18.68v-5h-11.64c1.64-1.2 2.84-3.8 2.84-6.64 0-5.6-4.36-10.28-10.76-10.28-6.76 0-10.76 4.72-10.76 10.28 0 2.84 1.16 5.4 2.8 6.64h-2.44v5zm-19.56-4.92c-3.4 0-6.12-2.4-6.12-5.96 0-3.6 2.72-5.96 6.12-5.96 3.36 0 6.08 2.36 6.08 5.96 0 3.56-2.72 5.96-6.08 5.96zm10.8-27.081c0-2.72-1.04-4.88-2.6-5.88h2.2v-5h-12.8c-3.88 0-8.36 3-8.36 9.32 0 4.8 2.64 7.56 5.6 8.8l2.04-4c-1.28-.44-3.16-1.72-3.16-4.68 0-2.88 1.96-4.44 3.44-4.44h.2l.36 5.72c.28 4.68 2.8 7.32 6.6 7.32 3.88 0 6.48-3.08 6.48-7.16zm-6.68 2.08c-1.4 0-2.2-1.04-2.32-2.56l-.36-5.48h.64c2.56 0 4.32 2.56 4.32 5.24 0 1.64-.88 2.8-2.28 2.8zm6.28-18.68v-5h-12.12c-2.44 0-4.28-1.56-4.28-4.08 0-2.32 1.68-4.04 4.28-4.04h12.12v-5h-12.12c-2.44 0-4.28-1.56-4.28-4.08 0-2.32 1.68-4.04 4.28-4.04h12.12v-5h-13.68c-4.04 0-7.48 3.4-7.48 8.08 0 3.32 1.56 5.36 3 6.48-1.84 1.28-3 3.44-3 6.16 0 2.56 1.24 4.6 2.92 5.52h-2.56v5zm.4-42.761c0-2.72-1.04-4.88-2.6-5.88h2.2v-5h-12.8c-3.88 0-8.36 3-8.36 9.32 0 4.8 2.64 7.56 5.6 8.8l2.04-4c-1.28-.44-3.16-1.72-3.16-4.68 0-2.88 1.96-4.44 3.44-4.44h.2l.36 5.72c.28 4.68 2.8 7.32 6.6 7.32 3.88 0 6.48-3.08 6.48-7.16zm-27.121 4.84a2.97 2.97 0 0 0 3-3c0-1.68-1.28-3.04-3-3.04s-3 1.36-3 3.04a2.97 2.97 0 0 0 3 3zm20.441-2.76c-1.4 0-2.2-1.04-2.32-2.56l-.36-5.48h.64c2.56 0 4.32 2.56 4.32 5.24 0 1.64-.88 2.8-2.28 2.8zm-20.441-4.96a2.97 2.97 0 0 0 3-3c0-1.68-1.28-3-3-3s-3 1.32-3 3a2.97 2.97 0 0 0 3 3zm26.721-15.08v-10.2h-4.8v5.2h-11.44v-5.12h-4.56v5.12h-5.12v4.88h5.12v3.64h4.56v-3.52zm.4-20.64c0-2.72-1.04-4.88-2.6-5.88h2.2v-5h-12.8c-3.88 0-8.36 3-8.36 9.32 0 4.8 2.64 7.56 5.6 8.8l2.04-4c-1.28-.44-3.16-1.72-3.16-4.68 0-2.88 1.96-4.44 3.44-4.44h.2l.36 5.72c.28 4.68 2.8 7.32 6.6 7.32 3.88 0 6.48-3.08 6.48-7.16zm-6.68 2.08c-1.4 0-2.2-1.04-2.32-2.56l-.36-5.48h.64c2.56 0 4.32 2.56 4.32 5.24 0 1.64-.88 2.8-2.28 2.8zm6.28-18.68v-5h-12.08c-2.52 0-4.32-1.68-4.32-4.2 0-2.32 1.64-4.16 4.32-4.16h12.08v-5h-13.68c-4.08 0-7.48 3.04-7.48 7.64 0 2.68 1.24 4.72 2.92 5.72h-2.56v5zm0-23.921v-5H30.402v5zm-27.241.84c1.88 0 3.24-1.4 3.24-3.32 0-1.88-1.36-3.32-3.24-3.32-1.92 0-3.28 1.44-3.28 3.32 0 1.92 1.36 3.32 3.28 3.32zm27.601-20.8c0-5.72-3.48-8.68-5.48-9.48l-2.2 3.8c1.4.56 3.24 2.48 3.24 5.68 0 2.84-1.4 5.16-4.52 5.8v-16.12h-2c-5.48 0-10.56 3.76-10.56 10.36 0 6.44 4.68 10.8 10.76 10.8 6 0 10.76-4.08 10.76-10.84zm-12.96 5.68c-2.8-.76-4.24-3.08-4.24-5.6 0-3.36 2.4-5.08 4.24-5.2z"/><use href="#B"/><use href="#B" x="113.39"/><use href="#B" x="226.77"/></g><path d="M227.032 58.035h2.513V45.902h-2.531l-1.803 1.647h-1.213v2.756h1.491l1.543-1.439zm109.061.078h8.303v-2.427h-4.784l2.652-2.219c1.456-1.213 1.959-2.184 1.959-3.571 0-2.028-1.508-4.073-4.333-4.073-2.357 0-3.692 1.473-3.969 3.293l2.08.971c.069-.971.676-1.907 1.889-1.907a1.67 1.67 0 0 1 1.751 1.716c0 .659-.416 1.3-1.144 1.924l-4.403 3.865zm117.277-2.297c-1.439 0-2.028-.953-2.115-1.785l-2.08.971c.26 1.664 1.82 3.189 4.316 3.189 3.033 0 4.42-1.924 4.42-3.917a2.84 2.84 0 0 0-1.889-2.739c.537-.243 1.508-1.005 1.508-2.357 0-1.751-1.387-3.432-4.125-3.432-2.323 0-3.692 1.369-4.056 3.137l2.08.971c.069-.867.624-1.733 1.855-1.733 1.196 0 1.681.659 1.681 1.265 0 .745-.624 1.231-1.473 1.231h-1.196v2.219h1.196c1.352 0 1.855.693 1.855 1.456 0 .711-.381 1.525-1.976 1.525z" fill="#e2e2e6"/><path d="M566.93 51.969h109.61zm-492.339 0h71.928z" fill="none" stroke="#1a1c1e" stroke-width="28.346" stroke-linejoin="round"/><path d="M134.455 433.573h3.893l-6.56-9.84 6.347-8.827h-3.893l-5.253 7.333h-1.84v-7.333h-3.387v18.667h3.387v-8.08h1.92zm6.267 0h3.36v-8.107l4.933-2.533v-3.547l-4.933 2.693v-2.373h-3.36zm10.827 0h3.333v-13.867h-3.333zm-.56-18.16c0 1.253.933 2.16 2.213 2.16 1.253 0 2.213-.907 2.213-2.16 0-1.28-.96-2.187-2.213-2.187-1.28 0-2.213.907-2.213 2.187zm11.627 18.16h3.76l5.333-13.867h-3.68l-3.493 9.973-3.653-9.973h-3.653zm11.6 0h3.333v-6.107h1.6l3.627 6.107h3.84l-4.533-7.733 4.427-6.133h-3.92l-3.2 4.4h-1.84v-10.267h-3.333zm18.187.267c1.813 0 3.253-.693 3.92-1.733v1.467h3.333v-8.533c0-2.587-2-5.573-6.213-5.573-3.2 0-5.04 1.76-5.867 3.733l2.667 1.36c.293-.853 1.147-2.107 3.12-2.107 1.92 0 2.96 1.307 2.96 2.293v.133l-3.813.24c-3.12.187-4.88 1.867-4.88 4.4 0 2.587 2.053 4.32 4.773 4.32zm-1.387-4.453c0-.933.693-1.467 1.707-1.547l3.653-.24v.427c0 1.707-1.707 2.88-3.493 2.88-1.093 0-1.867-.587-1.867-1.52zm17.147 4.187h11.413v-2.933h-7.253l7.2-8v-2.933h-11.333v2.933h7.147l-7.173 8zm18.027.267c1.813 0 3.253-.693 3.92-1.733v1.467h3.333v-8.533c0-2.587-2-5.573-6.213-5.573-3.2 0-5.04 1.76-5.867 3.733l2.667 1.36c.293-.853 1.147-2.107 3.12-2.107 1.92 0 2.96 1.307 2.96 2.293v.133l-3.813.24c-3.12.187-4.88 1.867-4.88 4.4 0 2.587 2.053 4.32 4.773 4.32zm-1.387-4.453c0-.933.693-1.467 1.707-1.547l3.653-.24v.427c0 1.707-1.707 2.88-3.493 2.88-1.093 0-1.867-.587-1.867-1.52zm12.453 10.293h3.333v-7.76c.8 1.093 2.533 1.893 4.427 1.893 3.733 0 6.853-2.907 6.853-7.173 0-4.507-3.147-7.173-6.853-7.173-1.893 0-3.6.773-4.427 1.867v-1.627h-3.333zm3.28-13.04c0-2.267 1.6-4.08 3.973-4.08 2.4 0 3.973 1.813 3.973 4.08 0 2.24-1.573 4.053-3.973 4.053-2.373 0-3.973-1.813-3.973-4.053zm18.054 7.2c1.813 0 3.253-.693 3.92-1.733v1.467h3.333v-8.533c0-2.587-2-5.573-6.213-5.573-3.2 0-5.04 1.76-5.867 3.733l2.667 1.36c.293-.853 1.147-2.107 3.12-2.107 1.92 0 2.96 1.307 2.96 2.293v.133l-3.813.24c-3.12.187-4.88 1.867-4.88 4.4 0 2.587 2.053 4.32 4.773 4.32zm-1.387-4.453c0-.933.693-1.467 1.707-1.547l3.653-.24v.427c0 1.707-1.707 2.88-3.493 2.88-1.093 0-1.867-.587-1.867-1.52zm12.453 4.187h3.333v-8.08c0-1.627 1.04-2.853 2.72-2.853 1.547 0 2.693 1.12 2.693 2.853v8.08h3.333v-8.08c0-1.627 1.04-2.853 2.72-2.853 1.547 0 2.693 1.12 2.693 2.853v8.08h3.333v-9.12c0-2.693-2.267-4.987-5.387-4.987-2.213 0-3.573 1.04-4.32 2-.853-1.227-2.293-2-4.107-2-1.707 0-3.067.827-3.68 1.947v-1.707h-3.333zm28.507.267c1.813 0 3.253-.693 3.92-1.733v1.467h3.333v-8.533c0-2.587-2-5.573-6.213-5.573-3.2 0-5.04 1.76-5.867 3.733l2.667 1.36c.293-.853 1.147-2.107 3.12-2.107 1.92 0 2.96 1.307 2.96 2.293v.133l-3.813.24c-3.12.187-4.88 1.867-4.88 4.4 0 2.587 2.053 4.32 4.773 4.32zm-3.227-18.08a1.98 1.98 0 0 0 2 2c1.12 0 2.027-.853 2.027-2s-.907-2-2.027-2a1.98 1.98 0 0 0-2 2zm1.84 13.627c0-.933.693-1.467 1.707-1.547l3.653-.24v.427c0 1.707-1.707 2.88-3.493 2.88-1.093 0-1.867-.587-1.867-1.52zm3.307-13.627a1.98 1.98 0 0 0 2 2 1.96 1.96 0 1 0 0-4 1.98 1.98 0 0 0-2 2zm10.053 17.814h6.8v-3.2h-3.467v-7.627h3.413v-3.04h-3.413v-3.413h-3.253v3.413h-2.427v3.04h2.347zm13.76.267c1.813 0 3.253-.693 3.92-1.733v1.467h3.333v-8.533c0-2.587-2-5.573-6.213-5.573-3.2 0-5.04 1.76-5.867 3.733l2.667 1.36c.293-.853 1.147-2.107 3.12-2.107 1.92 0 2.96 1.307 2.96 2.293v.133l-3.813.24c-3.12.187-4.88 1.867-4.88 4.4 0 2.587 2.053 4.32 4.773 4.32zm-1.387-4.453c0-.933.693-1.467 1.707-1.547l3.653-.24v.427c0 1.707-1.707 2.88-3.493 2.88-1.093 0-1.867-.587-1.867-1.52zm12.453 4.187h3.333v-8.053c0-1.68 1.12-2.88 2.8-2.88 1.547 0 2.773 1.093 2.773 2.88v8.053h3.333v-9.12c0-2.72-2.027-4.987-5.093-4.987-1.787 0-3.147.827-3.813 1.947v-1.707h-3.333zm15.947 0h3.333v-13.867h-3.333zm-.56-18.16c0 1.253.933 2.16 2.213 2.16 1.253 0 2.213-.907 2.213-2.16 0-1.28-.96-2.187-2.213-2.187-1.28 0-2.213.907-2.213 2.187zm11.68 18.427c1.813 0 3.253-.693 3.92-1.733v1.467h3.333v-8.533c0-2.587-2-5.573-6.213-5.573-3.2 0-5.04 1.76-5.867 3.733l2.667 1.36c.293-.853 1.147-2.107 3.12-2.107 1.92 0 2.96 1.307 2.96 2.293v.133l-3.813.24c-3.12.187-4.88 1.867-4.88 4.4 0 2.587 2.053 4.32 4.773 4.32zm-1.387-4.453c0-.933.693-1.467 1.707-1.547l3.653-.24v.427c0 1.707-1.707 2.88-3.493 2.88-1.093 0-1.867-.587-1.867-1.52z" fill="#1a1c1e"/><path d="M567.796 58.035h2.513v-2.063h1.283v-2.34h-1.283v-2.496h-2.513v2.496h-2.808l3.415-5.859.017-1.872h-2.617v1.491l-3.536 6.24v2.34h5.529zm6.656.156a1.7 1.7 0 0 0 1.716-1.733c0-.971-.745-1.716-1.716-1.716a1.7 1.7 0 0 0-1.733 1.716c0 .971.763 1.733 1.733 1.733zm12.427 0c3.657 0 6.275-2.704 6.275-6.223 0-3.536-2.617-6.223-6.275-6.223s-6.257 2.687-6.257 6.223c0 3.519 2.6 6.223 6.257 6.223zm-3.952-6.223c0-2.34 1.699-4.056 3.952-4.056 2.271 0 3.952 1.716 3.952 4.056s-1.681 4.056-3.952 4.056c-2.253 0-3.952-1.716-3.952-4.056zm12.116 10.036h2.167V56.96c.52.711 1.647 1.231 2.877 1.231 2.427 0 4.455-1.889 4.455-4.663 0-2.929-2.045-4.663-4.455-4.663-1.231 0-2.34.503-2.877 1.213v-1.057h-2.167zm2.132-8.476c0-1.473 1.04-2.652 2.583-2.652 1.56 0 2.583 1.179 2.583 2.652 0 1.456-1.023 2.635-2.583 2.635-1.543 0-2.583-1.179-2.583-2.635zm11.734 4.68c1.179 0 2.115-.451 2.548-1.127v.953h2.167v-5.547c0-1.681-1.3-3.623-4.039-3.623-2.08 0-3.276 1.144-3.813 2.427l1.733.884c.191-.555.745-1.369 2.028-1.369 1.248 0 1.924.849 1.924 1.491v.087l-2.479.156c-2.028.121-3.172 1.213-3.172 2.86 0 1.681 1.335 2.808 3.103 2.808zm-.901-2.895c0-.607.451-.953 1.109-1.005l2.375-.156v.277c0 1.109-1.109 1.872-2.271 1.872-.711 0-1.213-.381-1.213-.988zm8.094 2.721h2.167v-3.969h1.04l2.357 3.969h2.496l-2.947-5.027 2.877-3.987h-2.548l-2.08 2.86h-1.196v-6.673h-2.167zm13.156.173c2.739 0 4.836-1.907 4.836-4.68s-2.115-4.663-4.836-4.663-4.836 1.889-4.836 4.663 2.097 4.68 4.836 4.68zm-2.635-4.68c0-1.508 1.127-2.635 2.635-2.635s2.635 1.127 2.635 2.635c0 1.525-1.127 2.635-2.635 2.635s-2.635-1.109-2.635-2.635zm11.509 4.507h2.444l3.467-9.013h-2.392l-2.271 6.483-2.375-6.483h-2.375zm9.914.173c1.179 0 2.115-.451 2.548-1.127v.953h2.167v-5.547c0-1.681-1.3-3.623-4.039-3.623-2.08 0-3.276 1.144-3.813 2.427l1.733.884c.191-.555.745-1.369 2.028-1.369 1.248 0 1.924.849 1.924 1.491v.087l-2.479.156c-2.028.121-3.172 1.213-3.172 2.86 0 1.681 1.335 2.808 3.103 2.808zm-.901-2.895c0-.607.451-.953 1.109-1.005l2.375-.156v.277c0 1.109-1.109 1.872-2.271 1.872-.711 0-1.213-.381-1.213-.988zm8.094 2.721h2.167V52.8c0-1.092.728-1.872 1.82-1.872 1.005 0 1.803.711 1.803 1.872v5.235h2.167v-5.928c0-1.768-1.317-3.241-3.311-3.241-1.161 0-2.045.537-2.479 1.265v-1.109h-2.167zm10.365 0h2.167V49.02h-2.167zm-.364-11.804c0 .815.607 1.404 1.439 1.404.815 0 1.439-.589 1.439-1.404 0-.832-.624-1.421-1.439-1.421-.832 0-1.439.589-1.439 1.421zm9.013 11.96c2.479 0 3.761-1.508 4.108-2.375l-1.647-.953c-.243.607-1.075 1.404-2.461 1.404-1.231 0-2.236-.607-2.513-1.959h6.985v-.867c0-2.375-1.629-4.576-4.489-4.576-2.791 0-4.68 2.028-4.68 4.663 0 2.6 1.768 4.663 4.697 4.663zm-2.461-5.616c.329-1.213 1.335-1.837 2.427-1.837 1.456 0 2.201 1.04 2.253 1.837zM71.437 57.597h8.251v-2.045h-6.032v-3.189h5.495v-2.028h-5.495V47.51h6.032v-2.045h-8.251zm9.36 0h2.461l1.959-3.293 1.924 3.293h2.444l-2.756-4.628 2.704-4.385h-2.479l-1.837 3.12-1.855-3.12h-2.461l2.669 4.42zm10.4 3.969h2.167v-5.044c.52.711 1.647 1.231 2.877 1.231 2.427 0 4.455-1.889 4.455-4.663 0-2.929-2.045-4.663-4.455-4.663-1.231 0-2.34.503-2.877 1.213v-1.057h-2.167zm2.132-8.476c0-1.473 1.04-2.652 2.583-2.652 1.56 0 2.583 1.179 2.583 2.652 0 1.456-1.023 2.635-2.583 2.635-1.543 0-2.583-1.179-2.583-2.635zm13.295 4.68c2.739 0 4.836-1.907 4.836-4.68s-2.115-4.663-4.836-4.663-4.836 1.889-4.836 4.663 2.097 4.68 4.836 4.68zm-2.635-4.68c0-1.508 1.127-2.635 2.635-2.635s2.635 1.127 2.635 2.635c0 1.525-1.127 2.635-2.635 2.635s-2.635-1.109-2.635-2.635zm8.753 4.507h7.419V55.69h-4.715l4.68-5.2v-1.907h-7.367v1.907h4.645l-4.663 5.2zm9.187 0h2.167v-9.013h-2.167zm.017-10.105h1.699l1.525-2.756h-2.253zm8.407 10.279c2.115 0 3.571-1.161 4.229-2.583l-1.907-.953c-.329.815-1.144 1.491-2.323 1.491-1.508 0-2.531-1.161-2.531-2.635 0-1.508 1.023-2.635 2.548-2.635 1.248 0 2.028.745 2.34 1.629l1.907-.988c-.624-1.508-2.063-2.669-4.247-2.669-2.635 0-4.749 1.889-4.749 4.663 0 2.825 2.132 4.68 4.732 4.68zm6.101-.173h2.167v-9.013h-2.167zm-.364-11.804c0 .815.607 1.404 1.439 1.404.815 0 1.439-.589 1.439-1.404 0-.832-.624-1.421-1.439-1.421-.832 0-1.439.589-1.439 1.421zm7.592 11.977c1.179 0 2.115-.451 2.548-1.127v.953h2.167V52.05c0-1.681-1.3-3.623-4.039-3.623-2.08 0-3.276 1.144-3.813 2.427l1.733.884c.191-.555.745-1.369 2.028-1.369 1.248 0 1.924.849 1.924 1.491v.087l-2.479.156c-2.028.121-3.172 1.213-3.172 2.86 0 1.681 1.335 2.808 3.103 2.808zm-.901-2.895c0-.607.451-.953 1.109-1.005l2.375-.156v.277c0 1.109-1.109 1.872-2.271 1.872-.711 0-1.213-.381-1.213-.988z" fill="#e2e2e6"/><defs ><path id="B" d="M240.943 51.969a14.173 14.173 0 1 1-28.346 0 14.173 14.173 0 1 1 28.346 0z"/></defs></svg>