<svg xmlns="http://www.w3.org/2000/svg" width="793.701" height="559.37" viewBox="0 0 210 148" xmlns:v="https://vecta.io/nano"><path d="M0 0h210v148H0z" fill="#f5faff"/><path d="M27.646 41.143S81.849 3.339 96.158 25.111 6.437 71.832 31.964 102.964 150.628 2.962 177.15 34.911s-79.178 47.521-65.705 72.047 64.424 3.227 64.424 3.227" fill="none" stroke="#1a1c1e" stroke-width="2" stroke-linecap="round" stroke-linejoin="round"/><g fill="#004a93"><circle cx="74.618" cy="18.354" r="6.871"/><circle cx="53.004" cy="64.007" r="8.845"/><circle cx="64.558" cy="97.899" r="10"/><circle cx="100.884" cy="69.624" r="11.889"/><circle cx="145.382" cy="75.003" r="16.707"/><circle cx="170.14" cy="112.392" r="24.803"/><circle cx="144.769" cy="38.663" r="12.907"/></g><path d="M74.885 21.747h1.222V14.96h-1.231l-1.134 1.018h-.611v1.338h.766l.989-.902zM50.171 68.432h5.804v-1.498h-3.657l2.072-1.847c1.111-.999 1.46-1.685 1.46-2.671 0-1.448-1.098-2.833-3.008-2.833-1.71 0-2.621 1.111-2.808 2.309l1.298.624c.075-.761.562-1.473 1.51-1.473.899 0 1.398.662 1.398 1.373 0 .562-.3 1.023-.961 1.648l-3.108 2.871zm14.274 32.882c-1.199 0-1.778-.804-1.877-1.595l-1.468.691c.198 1.27 1.397 2.554 3.415 2.554 2.357 0 3.5-1.468 3.5-3.09a2.41 2.41 0 0 0-1.51-2.314c.48-.226 1.199-.861 1.199-1.976 0-1.453-1.171-2.752-3.246-2.752-1.919 0-2.963 1.157-3.231 2.526l1.482.691c.071-.804.593-1.552 1.679-1.552 1.044 0 1.51.635 1.51 1.199 0 .734-.564 1.228-1.383 1.228h-.889v1.552h.889c1.157 0 1.693.635 1.693 1.411 0 .734-.452 1.425-1.764 1.425zm37.395-25.818h2.097v-2.097h1.342v-1.946h-1.342v-2.634h-2.097v2.634h-3.087l3.339-5.906.017-1.795h-2.181v1.46l-3.439 6.241v1.946h5.352zm42.783-32.507c-1.457 0-2.167-.983-2.368-1.931l-1.894.892c.328 1.548 1.767 3.169 4.262 3.169 2.932 0 4.553-2.186 4.553-4.426 0-2.076-1.475-4.316-4.116-4.316-.929 0-1.694.328-2.258.856l.219-2.896h5.555v-2.131h-7.613l-.492 7.504h2.076c.273-.546.911-1.257 2.022-1.257 1.384 0 2.295 1.075 2.295 2.24 0 1.184-.783 2.295-2.24 2.295zm.9 40.477c3.536 0 5.847-2.57 5.847-5.446 0-2.617-1.91-5.422-5.493-5.422-1.627 0-2.853.684-3.536 1.485 0-2.31 1.084-4.81 3.419-4.81 1.815 0 2.758 1.32 2.994 2.546l2.475-1.226c-.448-1.98-2.098-4.055-5.399-4.055-4.456 0-6.436 4.102-6.436 8.723 0 4.668 1.886 8.204 6.13 8.204zm-2.829-5.517c0-1.438 1.132-2.688 2.853-2.688 1.697 0 2.829 1.25 2.829 2.688 0 1.603-1.132 2.782-2.829 2.782-1.745 0-2.853-1.179-2.853-2.782zm20.556 46.845v-2.756h5.512v-4.272q-1.688-.379-3.014-1.43-1.326-1.051-1.946-2.635-2.584-.31-4.323-2.256-1.74-1.946-1.74-4.564v-1.378q0-1.137.81-1.946.81-.81 1.946-.81h2.756v-2.756h13.78v2.756h2.756q1.137 0 1.946.81.81.81.81 1.946v1.378q0 2.618-1.74 4.564-1.74 1.946-4.323 2.256-.62 1.585-1.946 2.635-1.326 1.051-3.014 1.43v4.272h5.512v2.756zm0-14.055v-5.236h-2.756v1.378q0 1.309.758 2.36.758 1.051 1.998 1.499zm13.78 0q1.24-.448 1.998-1.499.758-1.051.758-2.36v-1.378h-2.756z" fill="#d1e3ff"/></svg>